name rise30.3154peak39.0474fall46.5389.mot
datacolumns 19
datarows 29
range 4.21165500000000 4.25831700000000
endheader
time	ground_force1_vx	ground_force1_vy	ground_force1_vz	ground_force1_px	ground_force1_py	ground_force1_pz	ground_force2_vx	ground_force2_vy	ground_force2_vz	ground_force2_px	ground_force2_py	ground_force2_pz	ground_torque1_x	ground_torque1_y	ground_torque1_z	ground_torque2_x	ground_torque2_y	ground_torque2_z	
4.21165500000000	-51.19066300000000	811.68962099999999	58.00636300000000	0.10288300000000	0.00000000000000	0.11945300000000	-5.51917100000000	27.37113000000000	5.73484200000000	0.30826900000000	0.00000000000000	-0.06387900000000	0.00000000000000	24.10043900000000	0.00000000000000	0.00000000000000	3.41211500000000	0.00000000000000	
4.21332200000000	-51.20286600000000	808.70471499999996	57.82963900000000	0.10227200000000	0.00000000000000	0.11936600000000	-6.47543700000000	33.73368900000000	6.85486800000000	0.31509400000000	0.00000000000000	-0.06444300000000	0.00000000000000	23.94291500000000	0.00000000000000	0.00000000000000	4.13738600000000	0.00000000000000	
4.21499200000000	-51.21838800000000	805.58989099999997	57.63172500000000	0.10167800000000	0.00000000000000	0.11927400000000	-7.37796900000000	40.37347200000000	7.96037000000000	0.32124800000000	0.00000000000000	-0.06495400000000	0.00000000000000	23.78397500000000	0.00000000000000	0.00000000000000	4.86864500000000	0.00000000000000	
4.21665000000000	-51.23830900000000	802.34689200000003	57.41247800000000	0.10110100000000	0.00000000000000	0.11917800000000	-8.19458200000000	47.16910400000000	9.02033000000000	0.32683200000000	0.00000000000000	-0.06542200000000	0.00000000000000	23.62393600000000	0.00000000000000	0.00000000000000	5.58597200000000	0.00000000000000	
4.21832400000000	-51.26368300000000	798.97747800000002	57.17179100000000	0.10054200000000	0.00000000000000	0.11907600000000	-8.89827100000000	54.01074100000000	10.00792100000000	0.33193000000000	0.00000000000000	-0.06585400000000	0.00000000000000	23.46311000000000	0.00000000000000	0.00000000000000	6.27158200000000	0.00000000000000	
4.21999100000000	-51.29553200000000	795.48341400000004	56.90959600000000	0.10000000000000	0.00000000000000	0.11896800000000	-9.46865300000000	60.80722200000000	10.90200400000000	0.33660600000000	0.00000000000000	-0.06625700000000	0.00000000000000	23.30179800000000	0.00000000000000	0.00000000000000	6.91089700000000	0.00000000000000	
4.22165600000000	-51.33484100000000	791.86646299999995	56.62586100000000	0.09947500000000	0.00000000000000	0.11885600000000	-9.89265600000000	67.49066000000001	11.68796100000000	0.34091400000000	0.00000000000000	-0.06663500000000	0.00000000000000	23.14029500000000	0.00000000000000	0.00000000000000	7.49321700000000	0.00000000000000	
4.22332100000000	-51.38255400000000	788.12836600000003	56.32059600000000	0.09896800000000	0.00000000000000	0.11873800000000	-10.16452900000000	74.01840400000000	12.35785900000000	0.34489900000000	0.00000000000000	-0.06699200000000	0.00000000000000	22.97888000000000	0.00000000000000	0.00000000000000	8.01195900000000	0.00000000000000	
4.22499000000000	-51.43956700000000	784.27084300000001	55.99384400000000	0.09847800000000	0.00000000000000	0.11861500000000	-10.28523800000000	80.37260600000000	12.91004800000000	0.34859500000000	0.00000000000000	-0.06733200000000	0.00000000000000	22.81782300000000	0.00000000000000	0.00000000000000	8.46453000000000	0.00000000000000	
4.22665400000000	-51.50672400000000	780.29557499999999	55.64568900000000	0.09800600000000	0.00000000000000	0.11848700000000	-10.26143200000000	86.55780600000000	13.34830900000000	0.35203400000000	0.00000000000000	-0.06765800000000	0.00000000000000	22.65737900000000	0.00000000000000	0.00000000000000	8.85188300000000	0.00000000000000	
4.22831700000000	-51.58481200000000	776.20419800000002	55.27625300000000	0.09755000000000	0.00000000000000	0.11835300000000	-10.10410800000000	92.59710500000000	13.68069700000000	0.35524000000000	0.00000000000000	-0.06797100000000	0.00000000000000	22.49778900000000	0.00000000000000	0.00000000000000	9.17785900000000	0.00000000000000	
4.22998400000000	-51.67455600000000	771.99829599999998	54.88569400000000	0.09711200000000	0.00000000000000	0.11821400000000	-9.82716400000000	98.52746399999999	13.91824500000000	0.35823500000000	0.00000000000000	-0.06827400000000	0.00000000000000	22.33927800000000	0.00000000000000	0.00000000000000	9.44839900000000	0.00000000000000	
4.23165700000000	-51.77661400000000	767.67939200000001	54.47420600000000	0.09669000000000	0.00000000000000	0.11806900000000	-9.44596500000000	104.39468500000000	14.07364400000000	0.36103800000000	0.00000000000000	-0.06856800000000	0.00000000000000	22.18205500000000	0.00000000000000	0.00000000000000	9.67071900000000	0.00000000000000	
4.23332500000000	-51.89157600000000	763.24894099999995	54.04202100000000	0.09628500000000	0.00000000000000	0.11791900000000	-8.97603300000000	110.24853700000000	14.16001500000000	0.36366300000000	0.00000000000000	-0.06885500000000	0.00000000000000	22.02631100000000	0.00000000000000	0.00000000000000	9.85252700000000	0.00000000000000	
4.23499100000000	-52.01995100000000	758.70832499999995	53.58940600000000	0.09589500000000	0.00000000000000	0.11776300000000	-8.43196400000000	116.13838300000000	14.18986400000000	0.36612500000000	0.00000000000000	-0.06913600000000	0.00000000000000	21.87221900000000	0.00000000000000	0.00000000000000	10.00132400000000	0.00000000000000	
4.23665000000000	-52.16217300000000	754.05884600000002	53.11666100000000	0.09552100000000	0.00000000000000	0.11760200000000	-7.82658900000000	122.10957200000000	14.17425600000000	0.36843500000000	0.00000000000000	-0.06941100000000	0.00000000000000	21.71993200000000	0.00000000000000	0.00000000000000	10.12385000000000	0.00000000000000	
4.23831900000000	-52.31858900000000	749.30172300000004	52.62412000000000	0.09516100000000	0.00000000000000	0.11743600000000	-7.17042900000000	128.20073700000000	14.12224700000000	0.37060300000000	0.00000000000000	-0.06968200000000	0.00000000000000	21.56958600000000	0.00000000000000	0.00000000000000	10.22568000000000	0.00000000000000	
4.23998300000000	-52.48945900000000	744.43808799999999	52.11215200000000	0.09481500000000	0.00000000000000	0.11726500000000	-6.47141600000000	134.44204800000000	14.04057000000000	0.37263800000000	0.00000000000000	-0.06995000000000	0.00000000000000	21.42129400000000	0.00000000000000	0.00000000000000	10.31098300000000	0.00000000000000	
4.24165400000000	-52.67495200000000	739.46898299999998	51.58115600000000	0.09448300000000	0.00000000000000	0.11708800000000	-5.73486500000000	140.85438099999999	13.93354000000000	0.37454800000000	0.00000000000000	-0.07021500000000	0.00000000000000	21.27515000000000	0.00000000000000	0.00000000000000	10.38242600000000	0.00000000000000	
4.24332100000000	-52.87514200000000	734.39535599999999	51.03155900000000	0.09416200000000	0.00000000000000	0.11690600000000	-4.96364100000000	147.44929300000001	13.80317200000000	0.37634000000000	0.00000000000000	-0.07047800000000	0.00000000000000	21.13122800000000	0.00000000000000	0.00000000000000	10.44121800000000	0.00000000000000	
4.24498400000000	-53.09000400000000	729.21806400000003	50.46382300000000	0.09385400000000	0.00000000000000	0.11672000000000	-4.15849000000000	154.22966700000001	13.64943400000000	0.37802000000000	0.00000000000000	-0.07073900000000	0.00000000000000	20.98957900000000	0.00000000000000	0.00000000000000	10.48725000000000	0.00000000000000	
4.24665600000000	-53.31941500000000	723.93786599999999	49.87843200000000	0.09355600000000	0.00000000000000	0.11652800000000	-3.31846100000000	161.19085100000001	13.47062200000000	0.37959300000000	0.00000000000000	-0.07099800000000	0.00000000000000	20.85023200000000	0.00000000000000	0.00000000000000	10.51931900000000	0.00000000000000	
4.24832000000000	-53.56314600000000	718.55543200000000	49.27590100000000	0.09326700000000	0.00000000000000	0.11633200000000	-2.44139100000000	168.32211200000000	13.26378000000000	0.38106400000000	0.00000000000000	-0.07125600000000	0.00000000000000	20.71319800000000	0.00000000000000	0.00000000000000	10.53538800000000	0.00000000000000	
4.24999000000000	-53.82086500000000	713.07133499999998	48.65676800000000	0.09298700000000	0.00000000000000	0.11613100000000	-1.52438000000000	175.60824199999999	13.02514600000000	0.38243700000000	0.00000000000000	-0.07151300000000	0.00000000000000	20.57846300000000	0.00000000000000	0.00000000000000	10.53286700000000	0.00000000000000	
4.25165500000000	-54.09213400000000	707.48606199999995	48.02159700000000	0.09271400000000	0.00000000000000	0.11592500000000	-0.56424800000000	183.03116800000001	12.75057200000000	0.38371600000000	0.00000000000000	-0.07177000000000	0.00000000000000	20.44599400000000	0.00000000000000	0.00000000000000	10.50889100000000	0.00000000000000	
4.25331600000000	-54.37640600000000	701.80001000000004	47.37097300000000	0.09244800000000	0.00000000000000	0.11571600000000	0.44206900000000	190.57144900000000	12.43590500000000	0.38490600000000	0.00000000000000	-0.07202600000000	0.00000000000000	20.31573500000000	0.00000000000000	0.00000000000000	10.46056500000000	0.00000000000000	
4.25498400000000	-54.67302900000000	696.01349700000003	46.70550300000000	0.09218700000000	0.00000000000000	0.11550200000000	1.49720700000000	198.20956899999999	12.07729500000000	0.38600800000000	0.00000000000000	-0.07228200000000	0.00000000000000	20.18761200000000	0.00000000000000	0.00000000000000	10.38517200000000	0.00000000000000	
4.25665000000000	-54.98123900000000	690.12676099999999	46.02581400000000	0.09192900000000	0.00000000000000	0.11528400000000	2.60314100000000	205.92697000000001	11.67143500000000	0.38702500000000	0.00000000000000	-0.07253800000000	0.00000000000000	20.06152700000000	0.00000000000000	0.00000000000000	10.28033600000000	0.00000000000000	
4.25831700000000	-55.30016700000000	684.13997400000005	45.33255100000000	0.09167400000000	0.00000000000000	0.11506200000000	3.76103700000000	213.70680899999999	11.21571400000000	0.38796200000000	0.00000000000000	-0.07279400000000	0.00000000000000	19.93736400000000	0.00000000000000	0.00000000000000	10.14413000000000	0.00000000000000	
